<svg width="60" height="54" viewBox="0 0 60 54" fill="none" xmlns="http://www.w3.org/2000/svg">
<path fill-rule="evenodd" clip-rule="evenodd" d="M1.34013 39.0718L21.2335 4.97095C24.0003 0.228196 30.185 -1.4119 34.9772 1.32631C39.7694 4.0646 41.4266 10.1854 38.6599 14.9283L18.7665 49.029C15.9997 53.7719 9.81504 55.4119 5.02277 52.6737C0.230575 49.9354 -1.42662 43.8145 1.34013 39.0718Z" fill="#323643"/>
<path fill-rule="evenodd" clip-rule="evenodd" d="M41.2335 49.0291L21.3402 14.9283C18.5734 10.1854 20.2305 4.06461 25.0227 1.32632C29.815 -1.41188 35.9997 0.22813 38.7665 4.97096L58.6598 39.0717C61.4267 43.8145 59.7694 49.9354 54.9773 52.6736C50.185 55.4119 44.0003 53.7718 41.2335 49.0291Z" fill="#3FB6F7"/>
</svg>
